<svg width="47" height="60" viewBox="0 0 47 60" fill="none" xmlns="http://www.w3.org/2000/svg">
<path d="M45.6667 29.3333C42.6667 26.1667 38.6667 24 34.5 23.1667C32.6667 22.6667 30.8333 22.3333 29 22.1667C33.6667 16.6667 32.8333 8.33334 27.3333 3.66667C21.8333 -0.999993 13.5 -0.16666 8.83335 5.33334C4.16668 10.8333 5.00001 19.1667 10.5 23.8333C11.5 24.6667 12.5 25.3333 13.5 25.6667V29.3333L10.8333 26.8333C8.50001 24.5 4.66668 24.5 2.16668 26.8333C-0.166654 29.1667 -0.333321 32.8333 2.00001 35.1667L9.66668 44.1667C10 46.5 10.8333 48.6667 12 50.6667C12.8333 52.1667 14 53.6667 15.1667 54.8333V58C15.1667 59 15.8333 59.6667 16.8333 59.6667H39.5C40.3333 59.6667 41.1667 58.8333 41.1667 58V53.6667C44.3333 49.8333 46 45 46 40.1667V30.5C46.1667 29.8333 46 29.5 45.6667 29.3333ZM9.00001 13.6667C9.00001 8.16667 13.5 3.83334 19 4.00001C24.5 4.00001 28.8333 8.50001 28.6667 14C28.6667 17 27.3333 19.6667 25 21.5V13.1667C24.9149 11.7223 24.2805 10.3652 23.2269 9.37353C22.1733 8.38189 20.7802 7.83083 19.3333 7.83334C16.3333 7.66667 13.6667 10.1667 13.6667 13.1667V21.8333C10.8333 20.1667 9.16668 17 9.00001 13.6667ZM42.8333 40C43 44.3333 41.5 48.5 38.6667 51.8333C38.3333 52.1667 38 52.5 38 53V56.5H18.6667V54.1667C18.6667 53.6667 18.3333 53.1667 18 52.8333C16.8333 51.8333 15.8333 50.6667 15 49.1667C14 47.5 13.3333 45.5 13 43.5C13 43.1667 12.8333 42.8333 12.6667 42.5L4.66668 33C4.16668 32.5 3.83335 31.8333 3.83335 31C3.83335 30.3333 4.16668 29.5 4.66668 29C5.83335 28 7.50001 28 8.66668 29L13.5 33.8333V38.8333L16.6667 37.1667V13.1667C16.8333 12 17.8333 11 19.1667 11.1667C20.3333 11.1667 21.5 12 21.5 13.1667V32.3333L24.8333 33V25.3333C25 25.1667 25.1667 25.1667 25.3333 25C26.5 25 27.6667 25.1667 28.8333 25.3333V33.8333L31.5 34.3333V25.6667L33.5 26.1667C34.3333 26.3333 35.1667 26.6667 36 27V35.3333L38.6667 35.8333V28.1667C40.1667 28.8333 41.5 29.8333 42.6667 31L42.8333 40Z" fill="#AFA187"/>
</svg>
